<?xml version="1.0" standalone="no"?>
<!DOCTYPE svg PUBLIC "-//W3C//DTD SVG 20010904//EN"
 "http://www.w3.org/TR/2001/REC-SVG-20010904/DTD/svg10.dtd">
<svg version="1.0" xmlns="http://www.w3.org/2000/svg"
 width="260.000000pt" height="260.000000pt" viewBox="0 0 260.000000 260.000000"
 preserveAspectRatio="xMidYMid meet">
<metadata>
Created by potrace 1.11, written by Peter Selinger 2001-2013
</metadata>
<g transform="translate(0.000000,260.000000) scale(0.100000,-0.100000)"
fill="#000000" stroke="none">
<path d="M120 2507 c3 -3 66 -26 140 -50 297 -99 510 -186 785 -322 237 -118
255 -128 380 -209 175 -114 307 -229 389 -336 64 -84 87 -128 114 -220 11 -36
9 -190 -2 -240 -82 -347 -444 -625 -1038 -795 -66 -19 -133 -37 -149 -40 -16
-3 -58 -12 -94 -20 -35 -9 -77 -17 -92 -19 -16 -2 -62 -9 -103 -15 -147 -22
-269 -34 -352 -35 -32 -1 -58 -4 -58 -8 0 -29 561 -31 670 -3 8 2 40 6 70 10
233 24 632 130 915 242 544 217 856 495 870 778 7 126 -67 251 -228 390 -116
99 -396 259 -662 378 -344 154 -1002 375 -1462 492 -34 8 -70 18 -80 22 -10 3
-16 4 -13 0z"/>
<path d="M30 2275 c0 -2 34 -22 76 -45 269 -147 635 -411 797 -574 182 -183
257 -310 259 -442 4 -188 -205 -394 -595 -589 -134 -67 -438 -194 -469 -196
-7 0 -31 -9 -53 -20 l-40 -19 105 5 c135 7 177 12 335 41 227 41 424 103 600
189 287 139 449 304 510 521 14 50 13 158 -2 207 -40 137 -177 289 -384 427
-212 140 -595 317 -929 430 -69 23 -134 46 -145 50 -24 10 -65 19 -65 15z"/>
</g>
</svg>
